<svg width="25" height="24" viewBox="0 0 25 24" fill="none" xmlns="http://www.w3.org/2000/svg">
<path d="M8.85645 12.5L15.8564 12.5" stroke="#222222" stroke-linecap="round"/>
<path d="M8.85645 15.5L12.8564 15.5" stroke="#222222" stroke-linecap="round"/>
<path d="M5.85645 5.9C5.85645 5.05992 5.85645 4.63988 6.01994 4.31901C6.16375 4.03677 6.39322 3.8073 6.67546 3.66349C6.99633 3.5 7.41637 3.5 8.25645 3.5H12.8623C13.2292 3.5 13.4127 3.5 13.5853 3.54145C13.7383 3.57819 13.8847 3.6388 14.0189 3.72104C14.1702 3.8138 14.3 3.94352 14.5594 4.20294L18.1535 7.79706C18.4129 8.05648 18.5426 8.1862 18.6354 8.33757C18.7176 8.47178 18.7783 8.6181 18.815 8.77115C18.8564 8.94378 18.8564 9.12723 18.8564 9.49411V18.1C18.8564 18.9401 18.8564 19.3601 18.693 19.681C18.5491 19.9632 18.3197 20.1927 18.0374 20.3365C17.7166 20.5 17.2965 20.5 16.4564 20.5H8.25645C7.41637 20.5 6.99633 20.5 6.67546 20.3365C6.39322 20.1927 6.16375 19.9632 6.01994 19.681C5.85645 19.3601 5.85645 18.9401 5.85645 18.1V5.9Z" stroke="#222222"/>
<path d="M12.8564 3.5V7.1C12.8564 7.94008 12.8564 8.36012 13.0199 8.68099C13.1637 8.96323 13.3932 9.1927 13.6755 9.33651C13.9963 9.5 14.4164 9.5 15.2564 9.5H18.8564" stroke="#222222"/>
</svg>
