<svg width="25" height="24" viewBox="0 0 25 24" fill="none" xmlns="http://www.w3.org/2000/svg">
<path d="M14.8564 18.5004H6.25644C5.41637 18.5004 4.99633 18.5004 4.67546 18.3369C4.39322 18.1931 4.16375 17.9636 4.01994 17.6814C3.85645 17.3605 3.85645 16.9405 3.85645 16.1004V6.9C3.85645 6.05992 3.85645 5.63988 4.01994 5.31901C4.16375 5.03677 4.39322 4.8073 4.67546 4.66349C4.99633 4.5 5.41637 4.5 6.25645 4.5H8.82882C9.20453 4.5 9.39238 4.5 9.5629 4.55179C9.71386 4.59763 9.85429 4.6728 9.97617 4.77298C10.1138 4.88614 10.218 5.04245 10.4264 5.35507L11.2865 6.64533C11.4949 6.95795 11.5991 7.11426 11.7367 7.22742C11.8586 7.3276 11.999 7.40277 12.15 7.44861C12.3205 7.5004 12.5084 7.5004 12.8841 7.5004H16.8568C17.3215 7.5004 17.5538 7.5004 17.7444 7.55143C18.2623 7.69008 18.6668 8.09459 18.8054 8.61248C18.8564 8.80308 18.8564 9.03539 18.8564 9.5V9.5M9.85645 13.5H16.8564" stroke="#222222" stroke-linecap="round"/>
<path d="M6.30943 11.1411C6.50613 10.551 6.60448 10.2559 6.78692 10.0378C6.94801 9.84512 7.1549 9.69601 7.3886 9.6041C7.65325 9.50002 7.96428 9.50003 8.58634 9.50005L18.5267 9.50031C19.6509 9.50034 20.213 9.50036 20.582 9.7357C20.905 9.94171 21.1369 10.2635 21.2302 10.635C21.3367 11.0595 21.159 11.5928 20.8035 12.6593L19.4035 16.8593C19.2068 17.4495 19.1084 17.7445 18.926 17.9627C18.7649 18.1553 18.558 18.3044 18.3243 18.3963C18.0597 18.5004 17.7487 18.5004 17.1266 18.5004H7.18622C6.06202 18.5004 5.49991 18.5004 5.13094 18.2651C4.80795 18.0591 4.57602 17.7373 4.48272 17.3657C4.37614 16.9413 4.55388 16.408 4.90937 15.3415L6.30943 11.1411Z" stroke="#222222"/>
</svg>
