<svg width="25" height="24" viewBox="0 0 25 24" fill="none" xmlns="http://www.w3.org/2000/svg">
<path d="M14.4926 3.36144L14.9901 3.31169L14.4926 3.36144ZM14.3402 2.54161L13.8958 2.7708V2.77081L14.3402 2.54161ZM14.7875 4.81793L14.39 5.12119L14.39 5.12119L14.7875 4.81793ZM15.7159 5.20248L15.7826 5.69802L15.7159 5.20248ZM16.9543 4.38113L16.6377 3.99415L16.6377 3.99415L16.9543 4.38113ZM17.6418 3.90918L17.4896 3.4329L17.4896 3.4329L17.6418 3.90918ZM18.3437 3.94419L18.5425 3.48541V3.48541L18.3437 3.94419ZM18.9807 4.4822L19.3343 4.12865V4.12865L18.9807 4.4822ZM19.8742 5.37567L19.5206 5.72922V5.72922L19.8742 5.37567ZM20.4122 6.01275L20.871 5.81396L20.871 5.81396L20.4122 6.01275ZM20.4472 6.71464L20.9235 6.8668L20.9235 6.8668L20.4472 6.71464ZM19.9753 7.40209L20.3045 7.77838L20.3359 7.75095L20.3623 7.71871L19.9753 7.40209ZM19.9753 7.4021L19.646 7.02581L19.6147 7.05324L19.5883 7.08548L19.9753 7.4021ZM19.1539 8.64056L19.6494 8.70721V8.70721L19.1539 8.64056ZM19.5385 9.56892L19.2352 9.96645H19.2352L19.5385 9.56892ZM20.995 9.86385L21.0447 9.36633L21.0447 9.36633L20.995 9.86385ZM21.8148 10.0162L22.0441 9.57187V9.57187L21.8148 10.0162ZM22.2864 10.5373L22.7514 10.3534V10.3534L22.2864 10.5373ZM22.2864 13.4626L21.8214 13.2788L21.8214 13.2788L22.2864 13.4626ZM21.8148 13.9838L22.0439 14.4282L22.0439 14.4282L21.8148 13.9838ZM20.9951 14.1361L20.9453 13.6386L20.929 13.6402L20.9129 13.6429L20.9951 14.1361ZM20.9951 14.1361L21.0448 14.6337L21.0611 14.632L21.0773 14.6293L20.9951 14.1361ZM19.539 14.4309L19.8422 14.8285L19.539 14.4309ZM19.1543 15.3596L19.6498 15.2929V15.2928L19.1543 15.3596ZM19.9754 16.5976L19.5884 16.9142L19.9754 16.5976ZM20.4472 17.2848L20.9235 17.1326L20.9235 17.1326L20.4472 17.2848ZM20.4122 17.9869L19.9535 17.7881V17.7881L20.4122 17.9869ZM19.8744 18.6238L19.5208 18.2702L19.8744 18.6238ZM18.9808 19.5174L19.3343 19.8709L18.9808 19.5174ZM18.3437 20.0554L18.1449 19.5966H18.1449L18.3437 20.0554ZM17.6418 20.0904L17.4896 20.5667H17.4896L17.6418 20.0904ZM16.9544 19.6184L16.6377 20.0054L16.9544 19.6184ZM15.7159 18.7971L15.7826 18.3015L15.7159 18.7971ZM14.7875 19.1816L14.39 18.8784L14.39 18.8784L14.7875 19.1816ZM14.4926 20.6383L13.9951 20.5886L14.4926 20.6383ZM14.3402 21.4585L14.7845 21.6877L14.7845 21.6877L14.3402 21.4585ZM13.8192 21.9299L13.6354 21.465H13.6354L13.8192 21.9299ZM10.8937 21.9299L10.7099 22.3949H10.7099L10.8937 21.9299ZM10.3727 21.4584L10.8171 21.2292H10.8171L10.3727 21.4584ZM10.2203 20.6386L10.7178 20.5888L10.7162 20.5725L10.7135 20.5564L10.2203 20.6386ZM10.2203 20.6385L9.72278 20.6883L9.72441 20.7046L9.7271 20.7207L10.2203 20.6385ZM9.92536 19.182L9.52784 19.4853L9.52784 19.4853L9.92536 19.182ZM8.99702 18.7975L8.93037 18.3019L8.93037 18.3019L8.99702 18.7975ZM7.75852 19.6189L8.07089 20.0093L8.07514 20.0058L7.75852 19.6189ZM7.7585 19.6189L7.44613 19.2284L7.44188 19.2319L7.7585 19.6189ZM7.07103 20.0908L6.91888 19.6145H6.91888L7.07103 20.0908ZM6.36917 20.0558L6.17038 20.5146H6.17038L6.36917 20.0558ZM5.73205 19.5178L5.3785 19.8713L5.73205 19.5178ZM4.83861 18.6243L4.47004 18.9622L4.47738 18.9702L4.48506 18.9779L4.83861 18.6243ZM4.8386 18.6243L5.20717 18.2865L5.19983 18.2785L5.19215 18.2708L4.8386 18.6243ZM4.30058 17.9873L4.75937 17.7885L4.30058 17.9873ZM4.26558 17.2854L3.78929 17.1332H3.78929L4.26558 17.2854ZM4.73755 16.5979L4.35057 16.2813H4.35057L4.73755 16.5979ZM5.55892 15.3594L5.06338 15.2928V15.2928L5.55892 15.3594ZM5.17437 14.4311L5.47763 14.0335H5.47763L5.17437 14.4311ZM3.71788 14.1361L3.63568 14.6293L3.65183 14.632L3.66813 14.6337L3.71788 14.1361ZM3.71786 14.1361L3.80006 13.6429L3.78391 13.6402L3.76761 13.6386L3.71786 14.1361ZM2.89806 13.9838L3.12725 13.5394L3.12725 13.5394L2.89806 13.9838ZM2.42649 13.4627L1.96152 13.6465L1.96152 13.6465L2.42649 13.4627ZM2.35645 12.6318H1.85645H2.35645ZM2.35645 11.3683H2.85645H2.35645ZM2.42653 10.5372L1.96157 10.3533L1.96157 10.3533L2.42653 10.5372ZM2.89797 10.0163L3.12721 10.4606H3.12721L2.89797 10.0163ZM3.718 9.86384L3.76775 10.3614H3.76775L3.718 9.86384ZM5.17486 9.56881L5.47818 9.9663L5.47818 9.9663L5.17486 9.56881ZM5.55931 8.64066L6.05486 8.57407L6.05486 8.57407L5.55931 8.64066ZM4.73772 7.40182L5.1247 7.0852L5.10891 7.0659L5.09127 7.04826L4.73772 7.40182ZM4.73772 7.40182L4.35074 7.71843L4.36653 7.73774L4.38417 7.75537L4.73772 7.40182ZM4.26558 6.71405L4.74189 6.56197L4.74189 6.56197L4.26558 6.71405ZM4.30057 6.01243L4.75939 6.21116L4.75939 6.21116L4.30057 6.01243ZM5.7321 4.48177L6.08565 4.83532L5.7321 4.48177ZM6.36921 3.94373L6.17043 3.48494L6.36921 3.94373ZM7.07107 3.90872L7.22322 3.43243L7.07107 3.90872ZM7.75864 4.38076L7.44202 4.76774V4.76774L7.75864 4.38076ZM8.99689 5.20207L9.06362 4.70654L8.99689 5.20207ZM9.92551 4.81742L10.3231 5.12062L10.3231 5.12062L9.92551 4.81742ZM10.2203 3.36131L10.7178 3.41107L10.7203 3.38625V3.36131H10.2203ZM10.2203 3.3613L9.7228 3.31154L9.72031 3.33636V3.3613H10.2203ZM10.3726 2.5417L9.92823 2.31255L9.92823 2.31256L10.3726 2.5417ZM10.8938 2.07001L11.0776 2.535L11.0776 2.535L10.8938 2.07001ZM13.8191 2.07005L14.003 1.60507V1.60507L13.8191 2.07005ZM14.9901 3.31169C14.9691 3.10146 14.9511 2.91945 14.926 2.7696C14.9 2.61482 14.8616 2.46166 14.7846 2.31242L13.8958 2.77081C13.9062 2.79088 13.9223 2.83079 13.9398 2.93519C13.9581 3.04449 13.9727 3.18775 13.9951 3.41119L14.9901 3.31169ZM15.185 4.51467C15.1737 4.49983 15.1371 4.43872 15.0985 4.22451C15.0608 4.01507 15.032 3.73051 14.9901 3.31169L13.9951 3.41119C14.0353 3.81323 14.068 4.14432 14.1143 4.40162C14.1598 4.65413 14.2295 4.91083 14.39 5.12119L15.185 4.51467ZM15.6492 4.70694C15.4712 4.73089 15.294 4.65749 15.185 4.51467L14.39 5.12119C14.7168 5.54967 15.2484 5.76987 15.7826 5.69802L15.6492 4.70694ZM16.6377 3.99415C16.3119 4.26069 16.0903 4.44152 15.9156 4.56296C15.7369 4.68717 15.6677 4.70446 15.6492 4.70694L15.7826 5.69802C16.0448 5.66274 16.2756 5.53055 16.4863 5.38412C16.701 5.23493 16.9582 5.02396 17.2709 4.76811L16.6377 3.99415ZM17.4896 3.4329C17.3296 3.484 17.1942 3.56512 17.0663 3.65619C16.9426 3.74436 16.8012 3.86037 16.6377 3.99415L17.2709 4.76811C17.4447 4.62591 17.5563 4.53493 17.6466 4.47062C17.7328 4.4092 17.7724 4.39234 17.7939 4.38547L17.4896 3.4329ZM18.5425 3.48541C18.2094 3.3411 17.8353 3.32244 17.4896 3.4329L17.7939 4.38547C17.9092 4.34865 18.0339 4.35487 18.1449 4.40297L18.5425 3.48541ZM19.3343 4.12865C19.1849 3.97925 19.0558 3.84975 18.9414 3.74971C18.8233 3.64638 18.6965 3.55217 18.5425 3.48541L18.1449 4.40297C18.1656 4.41195 18.2033 4.43267 18.283 4.50236C18.3664 4.57534 18.4684 4.67697 18.6272 4.83575L19.3343 4.12865ZM20.2278 5.02211L19.3343 4.12865L18.6272 4.83575L19.5206 5.72922L20.2278 5.02211ZM20.871 5.81396C20.8042 5.65988 20.71 5.53314 20.6067 5.41502C20.5067 5.30065 20.3772 5.17151 20.2278 5.02211L19.5206 5.72922C19.6794 5.88801 19.7811 5.99001 19.854 6.07343C19.9237 6.1531 19.9445 6.19082 19.9534 6.21155L20.871 5.81396ZM20.9235 6.8668C21.034 6.52106 21.0153 6.147 20.871 5.81396L19.9534 6.21154C20.0015 6.32256 20.0078 6.44724 19.9709 6.56249L20.9235 6.8668ZM20.3623 7.71871C20.496 7.55519 20.6121 7.41381 20.7002 7.29005C20.7913 7.16224 20.8724 7.02676 20.9235 6.8668L19.9709 6.56249C19.9641 6.58401 19.9472 6.62359 19.8858 6.7098C19.8215 6.80007 19.7305 6.91168 19.5883 7.08547L20.3623 7.71871ZM20.3045 7.77839L20.3045 7.77838L19.646 7.0258L19.646 7.02581L20.3045 7.77839ZM19.6494 8.70721C19.6519 8.68871 19.6692 8.61957 19.7934 8.44084C19.9149 8.2661 20.0957 8.0445 20.3623 7.71872L19.5883 7.08548C19.3324 7.3982 19.1215 7.65547 18.9723 7.87015C18.8258 8.08084 18.6936 8.31168 18.6584 8.5739L19.6494 8.70721ZM19.8417 9.17139C19.6989 9.06244 19.6255 8.88524 19.6494 8.70721L18.6584 8.5739C18.5865 9.108 18.8067 9.63959 19.2352 9.96645L19.8417 9.17139ZM21.0447 9.36633C20.6259 9.32445 20.3413 9.29562 20.1319 9.25793C19.9177 9.21938 19.8566 9.18271 19.8417 9.17139L19.2352 9.96645C19.4455 10.1269 19.7022 10.1967 19.9548 10.2421C20.2121 10.2884 20.5432 10.3212 20.9452 10.3614L21.0447 9.36633ZM22.0441 9.57187C21.8948 9.49489 21.7416 9.45645 21.5868 9.43046C21.437 9.4053 21.255 9.38736 21.0447 9.36633L20.9452 10.3614C21.1687 10.3837 21.3119 10.3983 21.4213 10.4167C21.5257 10.4342 21.5656 10.4503 21.5856 10.4606L22.0441 9.57187ZM22.7514 10.3534C22.6179 10.0159 22.3666 9.73824 22.0441 9.57187L21.5856 10.4606C21.6932 10.5161 21.7769 10.6086 21.8214 10.7211L22.7514 10.3534ZM22.8564 11.3682C22.8564 11.157 22.8567 10.9741 22.8466 10.8224C22.8361 10.6658 22.8131 10.5096 22.7514 10.3534L21.8214 10.7211C21.8297 10.7421 21.8417 10.7835 21.8488 10.8891C21.8562 10.9997 21.8564 11.1437 21.8564 11.3682H22.8564ZM22.8564 12.6319V11.3682H21.8564V12.6319H22.8564ZM22.7514 13.6464C22.8131 13.4903 22.8361 13.3341 22.8466 13.1775C22.8567 13.0259 22.8564 12.8431 22.8564 12.6319H21.8564C21.8564 12.8564 21.8562 13.0003 21.8488 13.1109C21.8418 13.2165 21.8297 13.2578 21.8214 13.2788L22.7514 13.6464ZM22.0439 14.4282C22.3666 14.2618 22.618 13.984 22.7514 13.6464L21.8214 13.2788C21.777 13.3914 21.6932 13.4839 21.5856 13.5394L22.0439 14.4282ZM21.0448 14.6337C21.255 14.6126 21.437 14.5947 21.5868 14.5695C21.7416 14.5436 21.8947 14.5051 22.0439 14.4282L21.5856 13.5394C21.5655 13.5498 21.5256 13.5658 21.4212 13.5833C21.312 13.6017 21.1687 13.6163 20.9453 13.6386L21.0448 14.6337ZM21.0773 14.6293L21.0773 14.6293L20.9129 13.6429L20.9129 13.6429L21.0773 14.6293ZM19.8422 14.8285C19.857 14.8172 19.9181 14.7805 20.1323 14.742C20.3416 14.7043 20.6261 14.6755 21.0448 14.6337L20.9453 13.6386C20.5434 13.6788 20.2124 13.7115 19.9552 13.7578C19.7027 13.8032 19.4461 13.8729 19.2358 14.0333L19.8422 14.8285ZM19.6498 15.2928C19.6258 15.1147 19.6993 14.9375 19.8422 14.8285L19.2358 14.0333C18.8071 14.3602 18.5868 14.8921 18.6588 15.4264L19.6498 15.2928ZM20.3624 16.281C20.096 15.9553 19.9152 15.7338 19.7938 15.5591C19.6696 15.3805 19.6523 15.3113 19.6498 15.2929L18.6588 15.4264C18.6941 15.6885 18.8263 15.9192 18.9726 16.1298C19.1218 16.3444 19.3327 16.6016 19.5884 16.9142L20.3624 16.281ZM20.9235 17.1326C20.8724 16.9727 20.7913 16.8372 20.7003 16.7095C20.6121 16.5858 20.4961 16.4444 20.3624 16.281L19.5884 16.9142C19.7306 17.0879 19.8215 17.1995 19.8858 17.2897C19.9472 17.3759 19.9641 17.4155 19.971 17.437L20.9235 17.1326ZM20.871 18.1858C21.0154 17.8526 21.034 17.4784 20.9235 17.1326L19.971 17.437C20.0078 17.5523 20.0016 17.677 19.9535 17.7881L20.871 18.1858ZM20.2279 18.9773C20.3773 18.828 20.5067 18.6989 20.6067 18.5846C20.71 18.4665 20.8042 18.3398 20.871 18.1858L19.9535 17.7881C19.9445 17.8088 19.9238 17.8465 19.8541 17.9261C19.7811 18.0095 19.6795 18.1115 19.5208 18.2702L20.2279 18.9773ZM19.3343 19.8709L20.2279 18.9773L19.5208 18.2702L18.6272 19.1638L19.3343 19.8709ZM18.5425 20.5141C18.6966 20.4474 18.8233 20.3532 18.9414 20.2499C19.0558 20.1498 19.1849 20.0203 19.3343 19.8709L18.6272 19.1638C18.4684 19.3226 18.3664 19.4242 18.283 19.4972C18.2034 19.5669 18.1656 19.5876 18.1449 19.5966L18.5425 20.5141ZM17.4896 20.5667C17.8354 20.6771 18.2095 20.6585 18.5425 20.5141L18.1449 19.5966C18.0339 19.6447 17.9092 19.6509 17.794 19.6141L17.4896 20.5667ZM16.6377 20.0054C16.8013 20.1392 16.9426 20.2552 17.0664 20.3434C17.1942 20.4344 17.3297 20.5156 17.4896 20.5667L17.794 19.6141C17.7724 19.6072 17.7329 19.5904 17.6467 19.5289C17.5564 19.4646 17.4448 19.3736 17.271 19.2314L16.6377 20.0054ZM15.6493 19.2926C15.6678 19.2951 15.7369 19.3124 15.9156 19.4366C16.0904 19.558 16.312 19.7389 16.6377 20.0054L17.271 19.2314C16.9583 18.9756 16.701 18.7646 16.4863 18.6154C16.2756 18.469 16.0448 18.3368 15.7826 18.3015L15.6493 19.2926ZM15.1851 19.4849C15.294 19.3421 15.4712 19.2687 15.6493 19.2926L15.7826 18.3015C15.2485 18.2297 14.7169 18.4499 14.39 18.8784L15.1851 19.4849ZM14.9901 20.6881C15.032 20.2692 15.0609 19.9846 15.0985 19.7751C15.1371 19.5608 15.1738 19.4997 15.1851 19.4849L14.39 18.8784C14.2295 19.0887 14.1598 19.3455 14.1144 19.598C14.068 19.8553 14.0353 20.1865 13.9951 20.5886L14.9901 20.6881ZM14.7845 21.6877C14.8615 21.5385 14.9 21.3852 14.926 21.2304C14.9511 21.0805 14.9691 20.8984 14.9901 20.6881L13.9951 20.5886C13.9727 20.8121 13.9581 20.9554 13.9398 21.0648C13.9222 21.1692 13.9062 21.2092 13.8958 21.2292L14.7845 21.6877ZM14.0031 22.3949C14.3405 22.2614 14.6181 22.0102 14.7845 21.6877L13.8958 21.2292C13.8404 21.3367 13.7478 21.4205 13.6354 21.465L14.0031 22.3949ZM12.9881 22.5C13.1994 22.5 13.3824 22.5003 13.534 22.4901C13.6907 22.4797 13.8469 22.4566 14.0031 22.3949L13.6354 21.465C13.6143 21.4733 13.573 21.4853 13.4674 21.4924C13.3567 21.4997 13.2127 21.5 12.9881 21.5V22.5ZM11.7247 22.5H12.9881V21.5H11.7247V22.5ZM10.7099 22.3949C10.8661 22.4567 11.0223 22.4797 11.1789 22.4901C11.3305 22.5003 11.5134 22.5 11.7247 22.5V21.5C11.5001 21.5 11.3561 21.4997 11.2455 21.4924C11.1399 21.4853 11.0986 21.4733 11.0776 21.465L10.7099 22.3949ZM9.92831 21.6876C10.0947 22.0102 10.3724 22.2615 10.7099 22.3949L11.0776 21.465C10.9651 21.4205 10.8725 21.3367 10.8171 21.2292L9.92831 21.6876ZM9.72278 20.6883C9.74381 20.8985 9.76175 21.0806 9.78691 21.2304C9.8129 21.3852 9.85134 21.5384 9.92832 21.6876L10.8171 21.2292C10.8067 21.2091 10.7906 21.1692 10.7731 21.0648C10.7547 20.9555 10.7402 20.8123 10.7178 20.5888L9.72278 20.6883ZM9.7271 20.7207L9.7271 20.7208L10.7135 20.5564L10.7135 20.5563L9.7271 20.7207ZM9.52784 19.4853C9.53916 19.5001 9.57583 19.5612 9.61438 19.7754C9.65207 19.9849 9.6809 20.2695 9.72278 20.6883L10.7178 20.5888C10.6776 20.1867 10.6449 19.8556 10.5986 19.5983C10.5531 19.3458 10.4834 19.0891 10.3229 18.8787L9.52784 19.4853ZM9.06366 19.293C9.24169 19.2691 9.41888 19.3425 9.52784 19.4853L10.3229 18.8787C9.99602 18.4503 9.46445 18.2301 8.93037 18.3019L9.06366 19.293ZM8.07514 20.0058C8.40093 19.7393 8.62253 19.5584 8.79729 19.437C8.97603 19.3128 9.04517 19.2955 9.06366 19.293L8.93037 18.3019C8.66814 18.3372 8.4373 18.4694 8.2266 18.6158C8.01191 18.765 7.75463 18.976 7.4419 19.2319L8.07514 20.0058ZM8.07085 20.0093L8.07087 20.0093L7.44617 19.2284L7.44615 19.2284L8.07085 20.0093ZM7.22317 20.5671C7.38314 20.516 7.51862 20.4349 7.64645 20.3438C7.77021 20.2557 7.9116 20.1396 8.07512 20.0059L7.44188 19.2319C7.26808 19.3741 7.15647 19.4651 7.0662 19.5294C6.97999 19.5908 6.9404 19.6077 6.91888 19.6145L7.22317 20.5671ZM6.17038 20.5146C6.50341 20.6589 6.87745 20.6776 7.22317 20.5671L6.91888 19.6145C6.80364 19.6514 6.67896 19.6451 6.56795 19.597L6.17038 20.5146ZM5.3785 19.8713C5.5279 20.0207 5.65704 20.1503 5.77142 20.2503C5.88955 20.3536 6.01629 20.4478 6.17038 20.5146L6.56795 19.597C6.54722 19.5881 6.5095 19.5673 6.42983 19.4976C6.3464 19.4247 6.2444 19.323 6.08561 19.1642L5.3785 19.8713ZM4.48506 18.9779L5.3785 19.8713L6.08561 19.1642L5.19217 18.2708L4.48506 18.9779ZM4.47002 18.9622L4.47004 18.9622L5.20719 18.2865L5.20717 18.2865L4.47002 18.9622ZM3.8418 18.186C3.90856 18.3401 4.00277 18.4669 4.1061 18.585C4.20615 18.6994 4.33565 18.8285 4.48504 18.9779L5.19215 18.2708C5.03336 18.112 4.93173 18.01 4.85876 17.9266C4.78906 17.8469 4.76835 17.8092 4.75937 17.7885L3.8418 18.186ZM3.78929 17.1332C3.67884 17.479 3.6975 17.853 3.8418 18.186L4.75937 17.7885C4.71127 17.6775 4.70505 17.5528 4.74186 17.4375L3.78929 17.1332ZM4.35057 16.2813C4.21678 16.4448 4.10076 16.5862 4.01259 16.7099C3.92152 16.8378 3.84039 16.9733 3.78929 17.1332L4.74186 17.4375C4.74874 17.416 4.7656 17.3764 4.82702 17.2902C4.89134 17.1999 4.98232 17.0883 5.12453 16.9145L4.35057 16.2813ZM5.06338 15.2928C5.06089 15.3113 5.04361 15.3804 4.91939 15.5592C4.79795 15.7339 4.61711 15.9555 4.35057 16.2813L5.12453 16.9145C5.38039 16.6018 5.59136 16.3445 5.74056 16.1298C5.88698 15.9192 6.01918 15.6883 6.05445 15.4261L5.06338 15.2928ZM4.87111 14.8286C5.01393 14.9375 5.08733 15.1147 5.06338 15.2928L6.05445 15.4261C6.1263 14.892 5.90611 14.3604 5.47763 14.0335L4.87111 14.8286ZM3.66813 14.6337C4.08695 14.6755 4.37151 14.7044 4.58095 14.7421C4.79516 14.7806 4.85627 14.8173 4.87111 14.8286L5.47763 14.0335C5.26728 13.8731 5.01057 13.8033 4.75806 13.7579C4.50076 13.7116 4.16967 13.6788 3.76763 13.6386L3.66813 14.6337ZM3.63566 14.6293L3.63568 14.6293L3.80008 13.6429L3.80006 13.6429L3.63566 14.6293ZM2.66886 14.4281C2.8181 14.5051 2.97126 14.5435 3.12604 14.5695C3.27589 14.5947 3.45789 14.6126 3.66811 14.6337L3.76761 13.6386C3.54417 13.6163 3.40093 13.6017 3.29163 13.5833C3.18724 13.5658 3.14733 13.5497 3.12725 13.5394L2.66886 14.4281ZM1.96152 13.6465C2.09497 13.9841 2.34628 14.2618 2.66886 14.4281L3.12725 13.5394C3.01972 13.4839 2.93595 13.3914 2.89147 13.2788L1.96152 13.6465ZM1.85645 12.6318C1.85645 12.8431 1.85619 13.0259 1.86631 13.1776C1.87677 13.3341 1.89977 13.4904 1.96152 13.6465L2.89147 13.2788C2.88316 13.2578 2.87114 13.2165 2.86409 13.1109C2.8567 13.0003 2.85645 12.8563 2.85645 12.6318H1.85645ZM1.85645 11.3683L1.85645 12.6318H2.85645L2.85645 11.3683H1.85645ZM1.96157 10.3533C1.8998 10.5095 1.87678 10.6658 1.86632 10.8224C1.85619 10.9741 1.85645 11.157 1.85645 11.3683H2.85645C2.85645 11.1437 2.8567 10.9997 2.86409 10.8891C2.87115 10.7834 2.88318 10.7421 2.89149 10.7211L1.96157 10.3533ZM2.66873 9.57193C2.34626 9.73829 2.09502 10.0159 1.96157 10.3533L2.89149 10.7211C2.93597 10.6086 3.01972 10.5161 3.12721 10.4606L2.66873 9.57193ZM3.66825 9.36632C3.45797 9.38735 3.27592 9.4053 3.12602 9.43047C2.97121 9.45647 2.81801 9.49492 2.66873 9.57193L3.12721 10.4606C3.14729 10.4503 3.18721 10.4342 3.29163 10.4167C3.40096 10.3983 3.54425 10.3837 3.76775 10.3614L3.66825 9.36632ZM4.87154 9.17132C4.8567 9.18265 4.79558 9.21933 4.58131 9.25789C4.37182 9.2956 4.08719 9.32443 3.66825 9.36632L3.76775 10.3614C4.1699 10.3211 4.50108 10.2884 4.75844 10.2421C5.01102 10.1966 5.26779 10.1268 5.47818 9.9663L4.87154 9.17132ZM5.06376 8.70725C5.08768 8.88523 5.01431 9.06238 4.87154 9.17132L5.47818 9.9663C5.90648 9.63946 6.12661 9.10804 6.05486 8.57407L5.06376 8.70725ZM4.35074 7.71844C4.61737 8.04432 4.79826 8.26599 4.91975 8.44079C5.044 8.61959 5.06128 8.68875 5.06376 8.70725L6.05486 8.57407C6.01961 8.31178 5.88738 8.08087 5.74092 7.87012C5.59168 7.65537 5.38064 7.39802 5.1247 7.0852L4.35074 7.71844ZM4.38417 7.75537L4.38417 7.75537L5.09127 7.04826L5.09127 7.04826L4.38417 7.75537ZM3.78927 6.86614C3.84037 7.02617 3.92152 7.16171 4.01262 7.28959C4.10083 7.4134 4.21689 7.55484 4.35074 7.71843L5.1247 7.0852C4.98244 6.91132 4.89141 6.79966 4.82707 6.70935C4.76562 6.6231 4.74876 6.58349 4.74189 6.56197L3.78927 6.86614ZM3.84176 5.81371C3.69757 6.14662 3.67892 6.52052 3.78927 6.86614L4.74189 6.56197C4.7051 6.44676 4.71132 6.32213 4.75939 6.21116L3.84176 5.81371ZM4.48522 5.02154C4.33577 5.17099 4.20622 5.30018 4.10613 5.41459C4.00276 5.53276 3.90853 5.65955 3.84176 5.81371L4.75939 6.21116C4.76837 6.19042 4.78909 6.15269 4.85881 6.07299C4.93181 5.98953 5.03348 5.88749 5.19233 5.72864L4.48522 5.02154ZM5.37854 4.12822L4.48522 5.02154L5.19233 5.72864L6.08565 4.83532L5.37854 4.12822ZM6.17043 3.48494C6.01634 3.55171 5.88959 3.64591 5.77147 3.74925C5.65709 3.8493 5.52795 3.97881 5.37854 4.12822L6.08565 4.83532C6.24445 4.67653 6.34645 4.57489 6.42988 4.50191C6.50955 4.43221 6.54727 4.4115 6.568 4.40251L6.17043 3.48494ZM7.22322 3.43243C6.87749 3.32199 6.50345 3.34065 6.17043 3.48494L6.568 4.40251C6.679 4.35442 6.80368 4.3482 6.91893 4.38501L7.22322 3.43243ZM8.07526 3.99378C7.91171 3.85997 7.7703 3.74394 7.64652 3.65575C7.51869 3.56467 7.3832 3.48354 7.22322 3.43243L6.91893 4.38501C6.94044 4.39188 6.98003 4.40874 7.06627 4.47018C7.15656 4.53451 7.26819 4.62551 7.44202 4.76774L8.07526 3.99378ZM9.06362 4.70654C9.04515 4.70405 8.97602 4.68676 8.7973 4.56255C8.62257 4.44111 8.40099 4.26029 8.07526 3.99378L7.44202 4.76774C7.75471 5.02357 8.01194 5.23451 8.22658 5.38369C8.43722 5.5301 8.66801 5.66229 8.93015 5.69759L9.06362 4.70654ZM9.52793 4.51422C9.41897 4.6571 9.24171 4.73052 9.06362 4.70654L8.93015 5.69759C9.46441 5.76954 9.99619 5.54927 10.3231 5.12062L9.52793 4.51422ZM9.7228 3.31156C9.68092 3.73027 9.65211 4.01475 9.61443 4.22413C9.5759 4.43828 9.53925 4.49938 9.52793 4.51422L10.3231 5.12062C10.4835 4.9103 10.5532 4.65367 10.5986 4.40122C10.6449 4.14399 10.6776 3.81299 10.7178 3.41107L9.7228 3.31156ZM9.72031 3.36131V3.36131H10.7203V3.36131H9.72031ZM9.72031 3.3613V3.36131H10.7203V3.3613H9.72031ZM9.92823 2.31256C9.8513 2.46176 9.81288 2.61488 9.7869 2.76961C9.76175 2.91943 9.74381 3.10138 9.7228 3.31154L10.7178 3.41105C10.7402 3.18767 10.7548 3.04446 10.7731 2.93519C10.7906 2.83083 10.8067 2.79092 10.817 2.77085L9.92823 2.31256ZM10.7101 1.60501C10.3724 1.73847 10.0946 1.98986 9.92823 2.31255L10.817 2.77085C10.8725 2.66329 10.9651 2.57949 11.0776 2.535L10.7101 1.60501ZM11.7245 1.5C11.5133 1.5 11.3305 1.49974 11.1789 1.50986C11.0224 1.52031 10.8662 1.54331 10.7101 1.60501L11.0776 2.535C11.0986 2.5267 11.1399 2.51469 11.2455 2.50764C11.3561 2.50026 11.5 2.5 11.7245 2.5V1.5ZM12.9882 1.5H11.7245V2.5H12.9882V1.5ZM14.003 1.60507C13.8468 1.54333 13.6906 1.52033 13.534 1.50987C13.3824 1.49974 13.1995 1.5 12.9882 1.5V2.5C13.2128 2.5 13.3568 2.50026 13.4674 2.50764C13.573 2.5147 13.6143 2.52672 13.6353 2.53502L14.003 1.60507ZM14.7846 2.31242C14.6182 1.98984 14.3405 1.73852 14.003 1.60507L13.6353 2.53502C13.7478 2.57951 13.8404 2.66328 13.8958 2.7708L14.7846 2.31242ZM15.8564 12C15.8564 13.933 14.2894 15.5 12.3564 15.5V16.5C14.8417 16.5 16.8564 14.4853 16.8564 12H15.8564ZM12.3564 8.5C14.2894 8.5 15.8564 10.067 15.8564 12H16.8564C16.8564 9.51472 14.8417 7.5 12.3564 7.5V8.5ZM8.85644 12C8.85644 10.067 10.4234 8.5 12.3564 8.5V7.5C9.87116 7.5 7.85644 9.51472 7.85644 12H8.85644ZM12.3564 15.5C10.4234 15.5 8.85644 13.933 8.85644 12H7.85644C7.85644 14.4853 9.87116 16.5 12.3564 16.5V15.5Z" fill="#222222"/>
</svg>
